<?xml version="1.0" encoding="UTF-8" standalone="no"?>
<!-- Created with Inkscape (http://www.inkscape.org/) -->

<svg
   xmlns:dc="http://purl.org/dc/elements/1.1/"
   xmlns:cc="http://creativecommons.org/ns#"
   xmlns:rdf="http://www.w3.org/1999/02/22-rdf-syntax-ns#"
   xmlns:svg="http://www.w3.org/2000/svg"
   xmlns="http://www.w3.org/2000/svg"
   xmlns:sodipodi="http://sodipodi.sourceforge.net/DTD/sodipodi-0.dtd"
   xmlns:inkscape="http://www.inkscape.org/namespaces/inkscape"
   version="1.1"
   id="svg2"
   width="1440"
   height="899.99994"
   viewBox="0 0 1815.1261 899.99994"
   sodipodi:docname="SW5e-logo.svg"
   inkscape:version="0.92.4 (5da689c313, 2019-01-14)">
  <metadata
     id="metadata8">
    <rdf:RDF>
      <cc:Work
         rdf:about="">
        <dc:format>image/svg+xml</dc:format>
        <dc:type
           rdf:resource="http://purl.org/dc/dcmitype/StillImage" />
        <dc:title />
      </cc:Work>
    </rdf:RDF>
  </metadata>
  <defs
     id="defs6" />
  <sodipodi:namedview
     pagecolor="#ffffff"
     bordercolor="#666666"
     borderopacity="1"
     objecttolerance="10"
     gridtolerance="10"
     guidetolerance="10"
     inkscape:pageopacity="0"
     inkscape:pageshadow="2"
     inkscape:window-width="1279"
     inkscape:window-height="704"
     id="namedview4"
     showgrid="false"
     fit-margin-top="0"
     fit-margin-left="0"
     fit-margin-right="0"
     fit-margin-bottom="0"
     inkscape:zoom="0.5"
     inkscape:cx="766.85021"
     inkscape:cy="399.03678"
     inkscape:window-x="0"
     inkscape:window-y="0"
     inkscape:window-maximized="0"
     inkscape:current-layer="layer2" />
  <g
     inkscape:groupmode="layer"
     id="layer2"
     inkscape:label="Layer 2"
     transform="translate(454.22534,446.7156)">
    <rect
       style="fill:#000000;fill-opacity:1;stroke-width:1.26050425"
       id="rect4550"
       width="1815.1261"
       height="1134.4537"
       x="-451.70432"
       y="-562.48029" />
  </g>
  <g
     inkscape:groupmode="layer"
     id="layer1"
     inkscape:label="Layer 1"
     transform="translate(454.22534,446.7156)">
    <path
       inkscape:connector-curvature="0"
       id="path4548"
       d="M 582.36549,121.77835 C 567.01118,117.753 556.16779,111.41348 540.34223,97.209702 535.159,92.557647 529.20312,87.880294 527.10694,86.815571 c -2.09618,-1.06471 -4.06882,-2.168546 -4.38363,-2.452966 -0.64799,-0.585416 54.31771,-55.884958 55.5476,-55.884958 0.43725,0 1.14695,2.200929 1.5771,4.890946 1.05735,6.612277 8.05805,16.435058 13.85872,19.445331 7.96878,4.135437 14.8334,4.228891 22.84135,0.310954 15.49734,-7.582134 18.16754,-26.841214 5.28915,-38.14858 -4.19239,-3.680974 -11.32986,-6.6526634 -15.97851,-6.6526634 -4.50936,0 -11.72729,2.9200334 -15.58035,6.3030634 l -4.1669,3.658588 L 562.29269,8.1764594 C 549.19236,2.6166023 538.28309,-2.123196 538.04986,-2.3564271 c -0.23323,-0.2332299 0.18005,-2.6675244 0.91839,-5.4095408 0.98029,-3.6405341 13.94929,-105.3484821 13.94929,-109.3958021 0,-0.31849 29.21219,-0.57907 64.91597,-0.57907 h 64.91596 v 32.773109 c 0,18.02521 -0.19646,32.773109 -0.43658,32.773109 -0.24013,0 -2.36723,-0.992647 -4.72689,-2.205882 -3.65632,-1.879918 -8.71411,-2.264634 -34.22728,-2.603473 l -29.93698,-0.397591 v 5.546282 5.54628 l 9.81062,-0.567928 c 12.80347,-0.741183 21.99734,1.277473 34.6415,7.606075 18.55325,9.286195 33.59763,27.48761 40.89042,49.471195 2.86337,8.631429 3.34932,12.262941 3.37351,25.210084 0.0248,13.318954 -0.38972,16.329328 -3.47033,25.197983 -10.49487,30.213328 -35.38816,52.217167 -68.6074,60.643917 -15.11683,3.83469 -34.2683,4.04593 -47.69457,0.52603 z M 153.33771,60.066702 V 34.858773 l 53.52746,-0.354428 c 47.53942,-0.314773 53.75767,-0.584748 55.58524,-2.413261 2.94943,-2.950928 0.92333,-6.160563 -10.80237,-17.112479 -12.16586,-11.3630342 -22.54661,-24.8356762 -27.96233,-36.290874 -3.8586,-8.161628 -4.17084,-9.769101 -4.16236,-21.428571 0.011,-15.126925 2.8863,-22.959692 11.26231,-30.680432 9.90136,-9.126753 9.53889,-9.089074 83.90039,-8.721708 l 66.09147,0.32651 10.75488,33.658529 c 5.9152,18.51219 11.07053,33.95388 11.45631,34.314867 0.38579,0.360986 4.92918,-14.785351 10.09642,-33.658529 l 9.39501,-34.314867 h 25.62031 25.62032 l 10.5362,32.625458 c 5.7949,17.944003 10.91815,33.542742 11.38499,34.663866 0.70831,1.701001 6.53259,-22.913834 14.35593,-60.671677 l 1.50175,-7.247899 h 16.31209 16.31208 l -0.67973,4.72689 c -0.37385,2.59979 -2.32716,18.340336 -4.34069,34.978992 -2.01355,16.638655 -4.5505,32.734131 -5.6377,35.767723 -1.08719,3.0335911 -1.97672,5.9359071 -1.97672,6.44958903 0,0.51368319 2.83613,2.11261257 6.30252,3.55317857 3.46639,1.4405647 6.30252,3.2353235 6.30252,3.9883513 0,0.7530277 -3.43462,15.1069441 -7.6325,31.8975911 l -7.63251,30.528441 -7.79985,7.905995 -7.79984,7.905984 -21.94126,-0.342958 -21.94124,-0.342971 -10.19291,-34.437491 -10.1929,-34.437479 -8.68467,34.776302 -8.68469,34.776303 -27.74042,-0.338811 -27.74043,-0.338824 -17.73208,-58.298319 -17.73209,-58.298319 -21.49059,0.01858 c -21.48887,0.01858 -26.86736,0.930466 -28.13429,4.769982 -0.29715,0.900516 5.7242,7.990852 13.38077,15.756302 15.64727,15.8697744 17.21668,17.7411807 22.75388,27.132284 8.68036,14.72192 11.42654,32.853819 6.96088,45.959798 -2.58024,7.572592 -10.26835,15.411945 -19.23917,19.617643 l -7.12863,3.34205 -77.20588,0.352273 -77.20588,0.352273 z M 693.09673,84.254958 C 704.98292,60.5135 707.11874,53.073563 707.11874,35.41042 c 0,-7.777651 -0.8174,-15.742853 -2.13435,-20.798319 -2.44955,-9.4033109 -9.62443,-25.203137 -14.12384,-31.102158 -1.68798,-2.213065 -3.06906,-4.628826 -3.06906,-5.36836 0,-0.917997 10.3981,-1.344608 32.77311,-1.344608 h 32.77311 v 16.985608 16.98561 L 750.10439,9.5388867 C 748.32607,8.8627649 741.51935,8.30958 734.97834,8.30958 h -11.89273 v 5.042017 5.042017 h 6.22046 c 3.42126,0 7.67546,-0.553185 9.45378,-1.229307 L 741.99317,15.935 v 14.367404 14.36739 l -9.45378,-0.714983 -9.45378,-0.714996 v 5.85421 5.85421 h 11.03773 c 6.07075,0 12.87747,-0.527634 15.12605,-1.172508 l 4.08832,-1.172521 v 16.298571 16.298559 h -30.35714 c -16.69644,0 -30.14416,-0.42542 -29.88384,-0.945378 z"
       style="fill:#da0000;fill-opacity:1;stroke-width:1.26050425" />
    <path
       inkscape:connector-curvature="0"
       id="path4546"
       d="m 584.43015,122.31584 c -12.5056,-2.68589 -27.18842,-10.56775 -38.57582,-20.70782 -5.47448,-4.874827 -13.00447,-10.908507 -16.73332,-13.408175 l -6.77972,-4.544837 27.56729,-27.58868 c 15.16202,-15.173773 27.92506,-27.588681 28.36233,-27.588681 0.43725,0 1.13634,2.134551 1.55352,4.743441 1.03219,6.454904 7.12386,15.69871 12.55921,19.057942 2.46276,1.522071 7.3325,3.105504 10.82165,3.518735 8.93341,1.058029 19.00328,-3.859362 23.45342,-11.452967 3.659,-6.243605 4.26589,-16.354651 1.32322,-22.045159 -3.75368,-7.258815 -14.3866,-13.9760044 -22.12321,-13.9760044 -4.49264,0 -11.72051,2.9140844 -15.53509,6.2633194 L 586.202,18.205798 562.32547,8.1242229 C 549.19337,2.5793556 538.25965,-2.146625 538.02833,-2.3779565 c -0.23134,-0.2313316 0.19367,-2.6008942 0.94446,-5.2656933 1.04212,-3.6988472 13.92236,-104.5458502 13.94094,-109.1518102 0.002,-0.51996 29.216,-0.94538 64.91978,-0.94538 h 64.91596 v 32.773109 c 0,18.02521 -0.19646,32.773109 -0.43658,32.773109 -0.24013,0 -2.36723,-0.992647 -4.72689,-2.205882 -3.65632,-1.879918 -8.71411,-2.264634 -34.22728,-2.603473 l -29.93698,-0.397591 v 5.546282 5.54628 l 9.76891,-0.544492 c 19.96278,-1.11267 38.79267,6.519131 53.88656,21.840356 10.59056,10.750087 16.00182,19.4972964 21.19039,34.2539699 3.51365,9.9930501 3.88149,12.4823701 3.86702,26.1695921 -0.0137,13.027173 -0.47502,16.454698 -3.32413,24.701307 -13.36858,38.694693 -51.32476,64.433193 -94.47426,64.064033 -6.44205,-0.0551 -15.39978,-0.89209 -19.90608,-1.85992 z M 153.33771,60.027399 V 34.780168 l 51.9958,-0.01853 c 53.78122,-0.01916 57.73152,-0.368836 58.66029,-5.191525 0.22519,-1.169332 -5.52778,-7.940647 -13.89526,-16.354891 -15.17555,-15.2604203 -22.21156,-24.775669 -27.38752,-37.037955 -2.67644,-6.340689 -3.19254,-9.522914 -3.17044,-19.54836 0.032,-14.513167 3.03461,-22.482034 11.36398,-30.15978 9.68557,-8.927848 10.22036,-8.982423 84.39218,-8.61221 l 65.43655,0.326612 10.5663,33.403361 c 5.81146,18.371849 10.97497,33.830657 11.47444,34.352908 0.49949,0.522251 5.16526,-14.509262 10.36838,-33.403361 l 9.46024,-34.352908 25.39481,-0.341045 25.39481,-0.341044 10.91465,33.744405 c 6.00307,18.559424 11.24323,34.292963 11.64481,34.963422 0.69249,1.156169 1.81403,-3.6146 11.62098,-49.433301 l 4.11438,-19.222689 h 16.26058 16.26058 l -0.69754,4.096638 c -0.38364,2.253152 -2.39049,18.118496 -4.45966,35.256322 -2.24984,18.634212 -4.69985,33.6275971 -6.09493,37.2991244 l -2.3328,6.13944198 6.25729,2.40675752 c 3.44151,1.3237173 6.49904,3.0270227 6.79451,3.7851252 0.29546,0.7581013 -2.92403,15.2223849 -7.15444,32.1428509 l -7.69168,30.764496 -7.77225,7.878151 -7.77226,7.878151 H 491.5585 469.83253 l -3.7553,-12.289916 c -2.06541,-6.759454 -6.63731,-21.932773 -10.15979,-33.718487 -3.52247,-11.785714 -6.57073,-21.95642 -6.77387,-22.601559 -0.20315,-0.645139 -4.21342,14.538895 -8.91171,33.742311 l -8.54235,34.915298 -27.76621,-0.338949 -27.76621,-0.33895 -17.72404,-58.298319 -17.72404,-58.298319 h -22.18669 c -18.04061,0 -22.71021,0.366687 -24.98817,1.962232 -1.54081,1.079227 -2.80148,2.584391 -2.80148,3.344808 0,0.760418 6.13849,7.676783 13.6411,15.369701 16.99603,17.4271611 20.45353,21.927519 26.37646,34.332229 4.53743,9.502966 4.73034,10.446756 4.73034,23.14229 0,10.557189 -0.49398,14.230891 -2.44127,18.155546 -3.47306,6.999794 -10.07899,13.149265 -18.24163,16.981122 l -7.0482,3.30871 -77.20588,0.352273 -77.20588,0.352273 z m 539.71494,24.227559 c 0.23606,-0.519958 2.20352,-4.348739 4.37211,-8.508403 8.57016,-16.43879 11.83914,-34.747261 9.25433,-51.830471 -1.8505,-12.230105 -7.08402,-26.8916872 -12.81832,-35.91019 -2.37704,-3.738435 -4.74852,-7.506188 -5.26997,-8.372785 -0.74881,-1.24445 5.9561,-1.57563 31.89941,-1.57563 h 32.8475 V -5.5871649 10.768193 L 750.33265,9.6256724 C 748.67988,8.9972859 741.87316,8.0827712 735.2066,7.5934157 L 723.08561,6.7036775 v 6.0269065 6.026912 l 9.45378,-0.714996 9.45378,-0.714983 v 13.579034 13.579033 l -9.45378,-0.606706 -9.45378,-0.606706 v 5.838026 5.838037 h 11.03773 c 6.07075,0 12.87747,-0.527634 15.12605,-1.172508 l 4.08832,-1.172521 v 16.298571 16.298559 h -30.35714 c -16.69644,0 -30.16399,-0.42542 -29.92792,-0.945378 z"
       style="fill:#da0000;fill-opacity:1;stroke-width:1.26050425" />
    <path
       inkscape:connector-curvature="0"
       id="path4544"
       d="m 585.01234,122.41864 c -15.43908,-3.36102 -29.73505,-11.60134 -45.95499,-26.488842 -3.81597,-3.5025 -9.12133,-7.714008 -11.78968,-9.358928 l -4.85156,-2.990748 27.50375,-27.525088 c 15.12707,-15.138794 27.85016,-27.111429 28.27353,-26.605853 0.42336,0.505575 1.42795,3.238412 2.23241,6.07297 5.35859,18.881257 25.16074,26.31053 40.90263,15.345618 7.72209,-5.37876 11.18812,-19.79913 6.79895,-28.286874 C 624.23452,15.05295 613.7239,8.3236346 605.85872,8.3236346 c -4.47862,0 -11.71488,2.9091304 -15.49751,6.2303324 l -4.08406,3.585844 -23.9277,-10.0891688 C 549.18921,2.5015977 538.2234,-2.2247208 537.981,-2.4522885 c -0.24242,-0.2275664 0.17769,-2.2952495 0.93359,-4.5948516 1.07293,-3.2641219 14.00295,-104.3595799 14.00295,-109.4843799 0,-0.75644 24.31058,-1.20932 64.91597,-1.20932 h 64.91596 v 32.652008 32.652007 l -6.31604,-2.399907 c -5.52982,-2.101166 -9.84478,-2.399906 -34.66387,-2.399906 h -28.34782 v 5.463815 5.463817 l 9.76891,-0.544492 c 38.25988,-2.132499 72.47566,29.249212 78.68041,72.163347 6.3348,43.813714 -27.50412,86.920221 -76.11517,96.961111 -11.54337,2.38434 -30.15934,2.45183 -40.74355,0.14768 z M 153.33771,59.990252 V 34.780168 h 52.66071 c 45.62196,0 53.03515,-0.262273 55.46218,-1.962227 1.54081,-1.079231 2.80148,-2.77176 2.80148,-3.761193 0,-0.98942 -6.17063,-7.905794 -13.71251,-15.369706 -15.83842,-15.6746708 -25.47013,-29.549808 -29.32692,-42.247452 -5.26173,-17.323104 -0.97108,-35.781807 10.62443,-45.707133 9.52067,-8.149337 10.47871,-8.239764 83.43768,-7.875539 l 65.42455,0.326612 10.37599,32.773109 c 5.7068,18.02521 10.73356,33.907563 11.17059,35.294117 0.51054,1.619787 4.29895,-10.096086 10.5974,-32.773109 l 9.8028,-35.294117 25.34804,-0.340981 25.34804,-0.340981 10.07964,31.223334 c 5.54381,17.172834 10.46129,32.783207 10.92774,34.68972 0.46646,1.906513 1.24614,3.466387 1.73265,3.466387 0.48649,0 4.20426,-15.59874 8.26171,-34.663866 l 7.37716,-34.663865 h 16.10222 16.10223 l -0.58712,4.096638 c -0.32293,2.253152 -2.27017,18.108454 -4.32722,35.234006 -2.37704,19.789522 -4.62041,33.3707353 -6.15559,37.2655143 l -2.41549,6.12814917 6.3439,2.44036643 c 3.48914,1.3422025 6.58565,3.0606327 6.88112,3.8187352 0.29546,0.7581013 -2.92403,15.2223849 -7.15444,32.1428509 l -7.69168,30.764496 -7.77225,7.878151 -7.77226,7.878151 h -21.67882 -21.6788 l -1.91343,-5.987395 c -1.05239,-3.293067 -5.69688,-18.75 -10.3211,-34.348739 -4.62421,-15.59874 -8.571,-28.538509 -8.77063,-28.755025 -0.19963,-0.21653 -4.20571,15.240403 -8.9024,34.348739 l -8.53944,34.74242 h -27.41516 -27.41516 l -1.93991,-5.987395 c -3.27339,-10.103042 -33.5568,-109.910676 -33.5568,-110.596045 0,-0.353897 -10.08387,-0.64345 -22.40861,-0.64345 -18.24146,0 -22.92957,0.3649 -25.21008,1.962232 -1.54081,1.079227 -2.80148,2.565946 -2.80148,3.303819 0,0.737873 6.42117,7.937851 14.26927,15.999953 15.70576,16.1340124 20.47469,22.483361 26.41383,35.167323 3.32744,7.106307 4.05415,10.35571 4.47877,20.026765 0.45562,10.376849 0.18112,12.224949 -2.7148,18.277311 -1.77191,3.703248 -3.9644,7.607105 -4.87219,8.675231 -3.57481,4.206227 -11.06086,8.893084 -18.03922,11.293991 -7.00309,2.409416 -10.61546,2.520265 -82.12795,2.520265 h -74.80267 z m 539.76973,24.264706 c 5.45742,-10.659517 11.04984,-23.642407 12.14367,-28.191706 6.11466,-25.43134 1.12519,-49.4960291 -15.45465,-74.539386 l -2.29491,-3.466387 h 32.91808 32.91808 V -5.5871649 10.768193 L 749.97988,9.4915422 C 748.13307,8.7893909 741.32635,7.8670384 734.85383,7.4418754 L 723.08561,6.6688498 v 6.0443272 6.044319 l 9.45378,-0.714996 9.45378,-0.714983 v 13.579034 13.579033 l -9.45378,-0.606706 -9.45378,-0.606706 v 5.838026 5.838037 h 11.89273 c 6.54101,0 13.34773,-0.553184 15.12605,-1.229306 l 3.23332,-1.229307 v 16.355357 16.355357 h -30.35714 c -16.69644,0 -30.13934,-0.42542 -29.87313,-0.945378 z"
       style="fill:#da0000;fill-opacity:1;stroke-width:1.26050425" />
    <path
       inkscape:connector-curvature="0"
       id="path4542"
       d="M 583.37034,121.81811 C 570.24799,118.59566 557.5701,111.73061 545.94213,101.55079 540.41936,96.715849 532.8887,90.672487 529.20731,88.121126 l -6.69343,-4.638844 27.45488,-27.476168 c 15.10017,-15.111895 27.80126,-27.062509 28.22463,-26.556933 0.42336,0.505575 1.42795,3.238412 2.23241,6.07297 5.73009,20.190265 28.87847,27.325072 42.96182,13.241723 8.99458,-8.99458 9.40903,-21.66184 1.02131,-31.214937 -9.63821,-10.9773062 -24.645,-11.9989158 -34.93677,-2.37837 l -3.15126,2.945736 -23.31933,-9.8892041 c -12.82563,-5.4390605 -23.83874,-10.087621 -24.47359,-10.3301332 -0.66149,-0.2526869 -0.51189,-2.2836416 0.35038,-4.7571857 1.19906,-3.439603 14.02083,-103.29332 14.03537,-109.30499 0.003,-1.24006 13.82937,-1.57563 64.91978,-1.57563 h 64.91596 v 32.805479 32.805479 l -4.09663,-2.238252 c -3.53983,-1.934028 -8.25134,-2.292115 -34.66387,-2.634535 l -30.56723,-0.396282 v 5.438299 5.438299 l 12.92017,0.02328 c 16.12927,0.02907 26.20767,3.183684 39.879,12.482424 15.82332,10.762457 28.4063,28.9301934 33.68027,48.628748 2.9344,10.96016 2.9233,30.706714 -0.0234,41.596639 -10.80171,39.919273 -51.10726,68.358822 -96.33583,67.974432 -6.00519,-0.0511 -15.08241,-1.11531 -20.17161,-2.36506 z M 153.33771,59.990252 V 34.780168 h 52.66071 c 45.62196,0 53.03515,-0.262273 55.46218,-1.962227 1.54081,-1.079231 2.80148,-2.800084 2.80148,-3.824117 0,-1.024034 -6.16147,-7.940395 -13.69216,-15.369706 -23.34905,-23.0346934 -32.7734,-41.12596 -31.33456,-60.150765 0.87385,-11.554249 5.4427,-21.604481 12.61064,-27.739969 9.52157,-8.150113 10.48093,-8.240699 83.416,-7.876466 l 65.40179,0.326612 10.81175,34.260491 c 5.94647,18.84327 11.10606,34.547251 11.46579,34.897737 0.35972,0.350486 4.94922,-15.066736 10.19888,-34.260491 l 9.54482,-34.897737 25.29956,-0.340872 25.29955,-0.340873 9.45893,29.332469 c 5.20241,16.132858 10.16349,31.743183 11.02463,34.689612 0.86113,2.946428 1.93544,5.357143 2.38737,5.357143 0.45192,0 4.14139,-15.59874 8.19884,-34.663866 l 7.37716,-34.663865 h 16.20548 c 16.14818,0 16.20331,0.01008 15.58845,2.836134 -0.33938,1.559874 -2.37724,17.584034 -4.52859,35.609244 -2.686,22.504902 -4.67233,34.5017681 -6.33973,38.2904845 -1.33552,3.0345567 -2.42821,5.6719185 -2.42821,5.86080254 0,0.18888403 2.90667,1.38864956 6.45926,2.66614416 3.55259,1.2774957 6.69896,2.9473739 6.99193,3.7108424 0.29298,0.7634685 -2.92857,15.2321424 -7.15898,32.1526084 l -7.69168,30.764496 -7.77225,7.878151 -7.77226,7.878151 h -21.68236 -21.68236 l -1.30587,-4.096638 c -0.71824,-2.253152 -5.35287,-17.710084 -10.29918,-34.34874 -4.94632,-16.638655 -9.1535,-30.417857 -9.3493,-30.620445 -0.1958,-0.202601 -4.24493,15.254332 -8.99805,34.348739 l -8.64206,34.717084 H 403.94026 376.55522 L 372.78849,72.91042 C 360.44354,32.631853 341.15284,-31.090646 341.15284,-31.590807 c 0,-0.323701 -10.79895,-0.41236 -23.99765,-0.197022 -24.16888,0.394321 -26.32167,0.819356 -26.40322,5.21291 -0.0101,0.57193 6.92923,8.25492 15.42187,17.0733112 16.77506,17.4184865 23.44536,27.3044858 27.61209,40.9237428 3.35806,10.976016 2.84171,25.295029 -1.19509,33.141491 -4.08724,7.944467 -13.13414,15.186706 -22.63789,18.122118 -7.74385,2.391832 -11.76548,2.514592 -82.37827,2.514592 h -74.23697 z m 539.4958,24.201681 c 0,-0.554622 0.53078,-1.547269 1.17951,-2.205883 0.64875,-0.658613 2.86789,-4.610533 4.93144,-8.782046 14.23091,-28.768096 10.60147,-64.2855753 -9.43296,-92.31039 l -2.0275,-2.836135 h 32.92686 32.92685 v 15.9033166 c 0,15.8881752 -0.003,15.9025575 -2.83614,15.1062088 C 748.9417,8.6285884 742.13498,7.9095237 735.37552,7.469072 L 723.08561,6.6682498 v 6.0284522 6.028437 l 9.45378,-0.606706 9.45378,-0.606706 v 13.486929 13.486928 l -9.45378,-0.606706 -9.45378,-0.606706 v 5.838026 5.838037 h 11.89273 c 6.54101,0 13.34773,-0.553184 15.12605,-1.229306 l 3.23332,-1.229307 v 16.355357 16.355357 h -30.2521 c -16.63866,0 -30.2521,-0.453781 -30.2521,-1.008403 z"
       style="fill:#da0000;fill-opacity:1;stroke-width:1.26050425" />
    <path
       inkscape:connector-curvature="0"
       id="path4540"
       d="m 586.3209,122.4078 c -17.0701,-3.76417 -28.80479,-10.1289 -44.38099,-24.071636 -4.7081,-4.214357 -11.00801,-9.277538 -13.9998,-11.251487 l -5.43962,-3.589009 27.41744,-27.438706 c 15.0796,-15.091285 27.87932,-27.153252 28.44382,-26.804369 0.56451,0.348895 1.03193,1.593516 1.03869,2.765836 0.0198,3.4275 5.69208,14.493428 8.97672,17.5125 7.46008,6.856916 19.18939,8.51676 28.46239,4.027764 18.07173,-8.748378 17.95718,-33.005508 -0.19891,-42.119369 C 613.21145,9.7179666 608.5136,8.30958 606.201,8.30958 c -5.26653,0 -12.61028,3.011382 -16.72884,6.85984 L 586.3209,18.114021 562.37132,7.9755224 c -13.17227,-5.5761718 -24.15697,-10.3057348 -24.41044,-10.510142 -0.25348,-0.2044071 0.1955,-2.244092 0.99774,-4.5326319 1.20455,-3.4362175 13.95892,-102.8787085 13.95892,-108.8340085 0,-1.58862 8.85594,-1.83958 64.91597,-1.83958 h 64.91596 v 32.805479 32.805479 l -4.09663,-2.238252 c -3.53983,-1.934028 -8.25134,-2.292115 -34.66387,-2.634535 l -30.56723,-0.396282 v 5.438299 5.438299 l 12.92017,0.02409 c 17.83635,0.03325 28.27012,3.626771 43.27077,14.902958 13.44264,10.105023 25.51124,28.5861356 30.24577,46.316541 2.63633,9.872824 2.95477,29.366572 0.63654,38.966496 -2.42206,10.02987 -8.91571,23.411408 -15.71431,32.382656 C 663.32063,114.38845 620.91902,130.03713 586.3209,122.4078 Z M 153.33771,60.027677 V 34.780168 h 52.25161 c 54.40562,0 58.67276,-0.384504 58.67276,-5.286945 0,-1.328824 -5.95461,-8.267471 -13.61853,-15.869105 -27.59548,-27.371128 -36.26776,-48.436522 -29.26902,-71.095827 3.02055,-9.779379 9.09381,-17.263623 17.32787,-21.353611 l 6.02186,-2.99115 h 67.92931 67.9293 l 10.85221,34.274408 c 5.96871,18.850925 11.15183,34.560206 11.51802,34.909512 0.3662,0.349307 4.96929,-15.074177 10.22908,-34.274409 l 9.56326,-34.909511 25.31715,-0.341025 25.31715,-0.341024 3.28623,10.425058 c 11.60243,36.806828 18.68168,58.44298 19.37463,59.214152 0.43982,0.489465 4.16105,-14.967467 8.26942,-34.348739 l 7.46974,-35.238674 h 15.98233 c 15.86516,0 15.97908,0.0208 15.53946,2.836134 -0.24358,1.559874 -2.19356,17.584034 -4.33328,35.609244 -2.68596,22.626709 -4.64581,34.4919627 -6.3304,38.3250475 -1.34198,3.0535652 -2.29129,5.68209962 -2.10957,5.84118407 0.18173,0.15908572 3.30836,1.55934583 6.94806,3.11168953 3.63971,1.5523424 6.61765,3.0443294 6.61765,3.3155243 0,0.2711962 -3.47773,14.5238236 -7.72829,31.6725036 l -7.72829,31.179429 -7.67647,7.878151 -7.67647,7.878151 h -21.72674 -21.72673 l -2.68152,-9.138655 c -6.53441,-22.269265 -17.85916,-59.591735 -18.1837,-59.927168 -0.19602,-0.202601 -4.24531,15.254332 -8.99843,34.348739 l -8.64206,34.717084 h -27.34142 -27.34143 l -1.3035,-4.096638 C 374.14768,77.359786 352.22897,5.1955384 344.32749,-20.997143 l -3.32721,-11.029411 H 319.0998 c -22.38526,0 -28.36713,0.938009 -28.36713,4.448211 0,1.09428 6.94853,9.238639 15.44117,18.098576 23.22816,24.232729 30.85068,39.435834 29.67124,59.179212 -0.92837,15.54058 -7.15607,24.49529 -21.79308,31.336009 l -7.56303,3.53463 -76.57563,0.352551 -76.57563,0.35255 z m 544.57486,15.403752 c 14.56329,-28.883068 12.72058,-61.581202 -5.04355,-89.495799 l -5.01346,-7.878151 h 32.74107 32.74108 v 15.9033166 c 0,15.8980197 -9.5e-4,15.9030365 -2.83614,15.0729693 C 748.9417,8.5770716 742.13498,7.8612124 735.37552,7.4429544 L 723.08561,6.6824871 v 6.0213239 6.021328 l 9.45378,-0.606706 9.45378,-0.606706 v 13.486929 13.486928 l -9.45378,-0.606706 -9.45378,-0.606706 v 6.640979 6.640992 l 12.12099,-0.88974 c 6.66656,-0.489352 13.47328,-1.403873 15.12605,-2.03226 l 3.00506,-1.142521 v 16.355357 16.355357 h -30.17539 -30.17538 z"
       style="fill:#da0000;fill-opacity:1;stroke-width:1.26050425" />
    <path
       inkscape:connector-curvature="0"
       id="path4538"
       d="m 588.29824,122.90407 c -17.45952,-3.42484 -30.14678,-10.30985 -47.57958,-25.820053 -5.71745,-5.086891 -12.19908,-10.181635 -14.40364,-11.32166 l -4.00829,-2.07276 27.59532,-27.621366 c 25.3725,-25.396449 27.6823,-27.391676 28.67507,-24.76984 5.53126,14.607693 9.27816,19.529874 17.4722,22.952723 10.84819,4.53155 23.58631,0.691663 30.5627,-9.213089 7.90945,-11.229479 3.37459,-26.970895 -9.63797,-33.455332 -9.99458,-4.9804975 -16.87688,-4.0098399 -29.43705,4.151711 -2.27496,1.478256 -5.20056,0.558781 -25.84034,-8.1212047 -12.8012,-5.3835063 -23.41739,-9.8878172 -23.59153,-10.0095794 -0.17414,-0.1217647 0.54207,-3.8604227 1.59156,-8.3081329 1.62426,-6.883473 13.22085,-98.957687 13.22085,-104.970407 0,-1.88748 5.60699,-2.06592 64.91597,-2.06592 h 64.91596 v 32.142857 c 0,17.678572 -0.49795,32.142857 -1.10657,32.142857 -0.60861,0 -3.1429,-0.85084 -5.63178,-1.890756 -3.57794,-1.494962 -10.60254,-1.890756 -33.55729,-1.890756 h -29.03209 v 5.59893 5.59893 l 8.50841,-0.677032 c 28.57721,-2.273947 56.62254,15.239123 70.95951,44.3111043 6.89407,13.9795207 9.20301,23.8975457 9.09694,39.0756297 -0.15366,21.983761 -8.23819,40.930929 -24.47491,57.360114 -14.27902,14.448262 -32.05791,23.910842 -53.08602,28.254332 -10.29581,2.12666 -26.98314,2.41244 -36.12743,0.6187 z M 153.33771,60.027677 V 34.780168 h 52.22887 c 30.88497,0 53.55019,-0.502374 55.46218,-1.229307 5.8271,-2.215462 4.02831,-5.683247 -10.35007,-19.953415 -27.4137,-27.207357 -36.23809,-48.263563 -29.48867,-70.364034 3.20469,-10.493505 8.37588,-17.055105 17.04414,-21.62689 l 6.4901,-3.422992 67.68841,-0.366462 67.68842,-0.366461 8.34008,26.206797 c 4.58705,14.413739 9.50734,29.893773 10.93398,34.400075 1.42664,4.506303 2.9781,8.619328 3.44769,9.140056 0.46959,0.520728 4.45768,-12.241877 8.86243,-28.361344 4.40474,-16.119468 8.79373,-32.002451 9.75331,-35.295518 l 1.74469,-5.987395 h 25.0635 25.0635 l 1.28586,4.096638 c 9.35178,29.793992 20.82371,64.797525 21.47266,65.51808 0.45435,0.504483 4.20074,-14.95245 8.32533,-34.348739 l 7.49923,-35.265979 h 15.92554 c 15.81223,0 15.92223,0.02018 15.4625,2.836134 -0.25467,1.559874 -2.18169,17.209678 -4.28227,34.77734 -3.37963,28.264665 -4.7113,35.4342011 -8.01018,43.1255734 -0.63754,1.48642184 0.83841,2.65303234 6.13274,4.8474063 3.83479,1.589429 6.97233,3.1273765 6.97233,3.4176617 0,0.2902853 -3.47773,14.5585316 -7.72829,31.7072116 l -7.72829,31.179429 -7.67647,7.878151 -7.67647,7.878151 h -21.69517 c -19.56901,0 -21.76018,-0.216176 -22.35857,-2.205882 -0.36488,-1.213235 -4.94555,-16.627538 -10.17928,-34.253987 -5.23372,-17.626463 -9.74305,-32.275299 -10.02073,-32.552975 -0.62891,-0.628916 -0.18903,-2.281727 -9.72882,36.554861 l -7.97297,32.457983 H 403.9729 c -24.96261,0 -27.41359,-0.192996 -28.0135,-2.205882 -2.49504,-8.371626 -32.65429,-107.649311 -33.69735,-110.92437 l -1.30472,-4.096638 h -22.67419 c -23.11656,0 -27.55047,0.769295 -27.55047,4.780076 0,1.193704 6.94853,9.27684 15.44117,17.962524 23.09649,23.621467 30.86157,39.057677 29.67124,58.983399 -0.92837,15.54058 -7.15607,24.49529 -21.79308,31.336009 l -7.56303,3.53463 -76.57563,0.352551 -76.57563,0.35255 z m 543.09207,18.555012 c 2.07971,-3.639706 5.352,-11.155462 7.27173,-16.701681 3.04324,-8.791991 3.49619,-12.022109 3.53515,-25.210084 0.0619,-20.936205 -4.68183,-36.97964189 -15.64593,-52.915409 l -3.92035,-5.698036 h 32.83367 32.83366 v 15.9033166 c 0,15.8980197 -9.5e-4,15.9030365 -2.83614,15.0729693 C 748.9417,8.5770716 742.13498,7.8612124 735.37552,7.4429544 L 723.08561,6.6824871 v 6.0213239 6.021328 l 9.45378,-0.606706 9.45378,-0.606706 v 13.385609 13.385609 l -9.45378,-0.477403 -9.45378,-0.477391 v 6.630404 6.630416 l 11.76822,-0.77303 c 6.47252,-0.425168 13.27924,-1.347517 15.12605,-2.049668 l 3.35783,-1.276651 V 68.844979 85.200336 H 722.9931 692.64849 Z"
       style="fill:#da0000;fill-opacity:1;stroke-width:1.26050425" />
    <path
       inkscape:connector-curvature="0"
       id="path4536"
       d="M 588.61797,122.97809 C 572.3814,120.05205 557.05957,111.84824 542.25666,98.154727 537.4331,93.692656 530.99938,88.584298 527.95951,86.802815 l -5.52705,-3.239067 27.52171,-27.54305 c 15.13694,-15.148677 27.61557,-27.543051 27.73026,-27.543051 0.11471,0 1.17202,3.063088 2.34958,6.806862 4.05948,12.906163 13.8594,20.949731 25.45936,20.89655 12.51249,-0.05735 23.24818,-9.014798 25.02779,-20.882193 0.6831,-4.555173 0.2305,-6.813618 -2.47274,-12.338824 -4.10766,-8.395765 -10.59615,-13.1806637 -19.26579,-14.2074578 -6.36998,-0.7544294 -12.39655,1.1547857 -20.57627,6.5185588 -3.0631,2.008601 -3.84686,1.779908 -26.47058,-7.7238605 -12.82272,-5.386563 -23.43273,-9.8535012 -23.57778,-9.9265285 -0.14506,-0.073034 0.51874,-3.2283782 1.47511,-7.0118912 0.95637,-3.7835128 4.45295,-29.7099968 7.77017,-57.6144088 l 6.03132,-50.735294 h 64.02719 64.02718 v 32.142857 c 0,17.678572 -0.21434,32.142857 -0.47632,32.142857 -0.26197,0 -2.51265,-0.85084 -5.00153,-1.890756 -3.57794,-1.494962 -10.60254,-1.890756 -33.55729,-1.890756 h -29.03209 v 5.681069 5.68107 l 8.50841,-0.756761 c 15.88347,-1.412719 35.66126,4.977026 48.49902,15.668901 13.69369,11.404739 24.941,29.0898079 29.38516,46.204712 2.5637,9.873051 2.56043,30.483214 -0.006,40.336134 -7.86228,30.179723 -34.15239,55.448043 -67.52734,64.902833 -10.77421,3.05221 -33.40079,4.34608 -43.66261,2.49677 z M 153.33771,60.008051 V 34.740916 l 52.10422,0.06706 c 32.29596,0.04147 53.38081,-0.418349 55.46219,-1.209681 5.91931,-2.250529 4.28634,-5.786584 -8.40372,-18.197496 -14.33581,-14.0204894 -21.20804,-22.6688831 -26.62254,-33.503336 -8.10211,-16.212395 -8.86914,-29.940793 -2.46958,-44.200911 3.91202,-8.717157 7.83555,-12.721536 16.27397,-16.609306 6.29482,-2.900168 6.38439,-2.904151 73.33683,-3.260771 l 67.0343,-0.357055 7.72278,24.306635 c 13.09839,41.225749 14.16646,44.444352 15.08538,45.459652 0.4903,0.541723 4.66612,-12.788109 9.27959,-29.621849 4.61348,-16.833739 8.98999,-32.733899 9.72556,-35.333689 l 1.33742,-4.72689 h 25.15083 c 13.83296,0 25.15084,0.278546 25.15084,0.618992 0,1.583526 21.7837,68.194191 22.57902,69.042569 0.49707,0.530245 4.27035,-14.926322 8.38506,-34.347929 l 7.48129,-35.31201 15.44118,-8.12e-4 15.44118,-8.1e-4 v 3.146445 c 0,1.730546 -1.75169,17.466318 -3.89263,34.968383 -3.46367,28.315174 -4.73007,35.0909055 -7.98045,42.6985362 -0.67646,1.58328025 0.67746,2.6591571 6.13273,4.8732895 3.85047,1.5627907 7.00085,3.067297 7.00085,3.3433449 0,0.2760492 -3.47773,14.5326484 -7.72829,31.6813284 l -7.72829,31.179429 -7.67647,7.878151 -7.67647,7.878151 h -21.58858 -21.58857 l -9.1875,-30.567227 c -5.05312,-16.811974 -9.73438,-32.521512 -10.4028,-34.910079 -0.87928,-3.142072 -1.48897,-3.839118 -2.20506,-2.521009 -0.54436,1.002013 -4.58546,16.711551 -8.98022,34.91008 l -7.99048,33.088235 h -27.44716 c -15.09594,0 -27.44717,-0.23047 -27.44717,-0.512143 0,-0.439928 -20.08931,-66.751928 -31.63565,-104.424831 l -3.76673,-12.289916 h -22.7178 c -23.45104,0 -27.5941,0.750671 -27.5941,4.999706 0,1.364509 6.1173,8.511774 14.25691,16.657331 21.2261,21.241626 29.41392,35.410778 30.76188,53.233941 1.3785,18.226841 -5.69775,30.822164 -21.38751,38.068563 l -7.87498,3.637097 -76.57563,0.352551 -76.57563,0.35255 z m 543.83338,17.314134 c 7.52514,-13.819525 10.15822,-24.683357 10.15822,-41.911765 0,-12.355021 -0.54198,-16.852122 -2.95848,-24.548042 -3.30192,-10.5157711 -7.53642,-19.4371547 -13.02794,-27.447756 l -3.67251,-5.357143 h 32.83367 32.83366 V -6.0392044 9.8641094 L 750.50157,8.9972859 C 748.9417,8.520538 742.13498,7.8113153 735.37552,7.4212447 L 723.08561,6.7120245 v 6.0065595 6.006555 l 9.45378,-0.606706 9.45378,-0.606706 v 13.385609 13.385609 l -9.45378,-0.477403 -9.45378,-0.477391 v 6.630706 6.630706 l 12.28991,-0.800823 c 6.75946,-0.440446 13.56618,-1.159513 15.12605,-1.597929 2.83344,-0.796349 2.83614,-0.781966 2.83614,15.10621 v 15.903315 h -30.22825 -30.22825 z"
       style="fill:#da0000;fill-opacity:1;stroke-width:1.26050425" />
    <path
       inkscape:connector-curvature="0"
       id="path4534"
       d="m 586.3209,122.39337 c -13.61017,-2.80769 -29.70188,-11.46321 -42.22689,-22.713269 -5.89286,-5.293009 -13.17742,-11.084509 -16.18791,-12.87 l -5.47364,-3.246353 27.52171,-27.54305 c 15.13694,-15.148677 27.62811,-27.543051 27.75814,-27.543051 0.13004,0 1.10804,2.977941 2.17333,6.617647 3.70597,12.661878 14.00104,21.138983 25.60773,21.085765 16.35816,-0.075 28.27843,-14.215563 24.3969,-28.941088 C 625.0487,8.8723447 604.49068,2.5261573 589.08702,14.644168 L 585.55061,17.42624 569.5492,10.750597 C 560.74842,7.0789888 550.07154,2.5298632 545.82279,0.64142623 l -7.725,-3.43352013 1.56581,-6.1088269 c 0.86119,-3.3598552 4.32334,-29.2233222 7.69366,-57.4743732 l 6.12785,-51.365546 h 64.00194 64.00192 v 32.142857 c 0,17.678572 -0.21434,32.142857 -0.47632,32.142857 -0.26197,0 -2.51265,-0.85084 -5.00153,-1.890756 -3.57794,-1.494962 -10.60254,-1.890756 -33.55729,-1.890756 h -29.03209 v 6.200915 6.200914 l 4.68835,-1.294515 c 6.0854,-1.680257 20.28688,-0.273392 29.97552,2.969516 11.30759,3.784791 20.71539,10.055015 30.39426,20.257533 24.25388,25.5660869 30.38627,62.654603 15.51257,93.819636 -4.98179,10.438387 -14.92834,22.646471 -25.10851,30.817359 -9.56354,7.67597 -27.50463,16.56246 -39.11807,19.37578 -11.84526,2.86946 -32.76021,3.48706 -43.44496,1.28287 z M 153.33771,59.953093 V 34.705861 l 52.85119,0.129656 c 36.50806,0.08962 53.65859,-0.302445 55.46219,-1.267702 4.91816,-2.632122 3.05335,-6.230117 -9.74262,-18.797533 -14.22291,-13.96888392 -21.6279,-23.5407507 -26.85808,-34.717386 -7.6747,-16.400445 -7.88579,-30.034358 -0.68113,-43.992964 4.72455,-9.153548 12.33047,-15.001943 22.28729,-17.137301 4.11652,-0.882834 28.94274,-1.369353 69.87573,-1.369353 h 63.49065 l 2.54826,7.878151 c 1.40154,4.332983 6.30367,19.789916 10.89362,34.348739 4.58995,14.558824 8.65168,27.321429 9.02609,28.361345 0.55218,1.533722 7.04503,-20.504549 19.4039,-65.861345 l 1.28798,-4.72689 h 24.91177 24.91176 l 11.0301,34.348739 c 6.06655,18.891807 11.35229,35.19958 11.74607,36.239496 0.39378,1.039916 4.19723,-14.27521 8.45211,-34.033614 l 7.73615,-35.924369 15.43139,-0.353923 c 15.23813,-0.349492 15.43138,-0.318638 15.43138,2.463726 0,1.549706 -1.71578,17.024097 -3.81283,34.387536 -3.36481,27.860324 -4.80935,35.6543308 -8.09671,43.6857732 -0.64365,1.57249663 0.75108,2.6742365 6.16919,4.8732895 3.85047,1.5627907 7.00085,3.067297 7.00085,3.3433449 0,0.2760492 -3.47773,14.5326484 -7.72829,31.6813284 l -7.72829,31.179429 -7.67647,7.878151 -7.67647,7.878151 H 491.67932 470.07417 L 460.2865,52.112101 C 454.90328,33.913572 450.04752,18.181042 449.49589,17.15092 c -0.75409,-1.408235 -1.23926,-0.939113 -1.95544,1.890757 -0.52388,2.070037 -4.43211,17.66076 -8.68495,34.646054 l -7.73244,30.882353 -27.33805,0.339706 c -15.03593,0.186845 -27.33806,0.0391 -27.33806,-0.328324 0,-0.702479 -30.21337,-100.301431 -33.5568,-110.620625 l -1.93992,-5.987395 h -22.67064 c -23.35962,0 -27.54692,0.754813 -27.54692,4.965679 0,1.316696 6.27346,8.664644 14.22155,16.657331 7.82184,7.865748 16.38485,17.5994937 19.0289,21.630548 18.02392,27.478916 15.39112,56.98442 -6.06363,67.954336 -11.44246,5.850593 -13.53207,5.988215 -91.15741,6.004034 l -73.42437,0.01496 z m 543.83338,17.369092 c 7.52514,-13.819525 10.15822,-24.683357 10.15822,-41.911765 0,-12.355021 -0.54198,-16.852122 -2.95848,-24.548042 -3.30192,-10.5157711 -7.53642,-19.4371547 -13.02794,-27.447756 l -3.67251,-5.357143 h 32.83367 32.83366 V -6.0392044 9.8641094 L 750.50157,8.9972859 C 748.9417,8.520538 742.13498,7.8113153 735.37552,7.4212447 L 723.08561,6.7120245 v 5.9785635 5.978572 l 9.45378,-0.477391 9.45378,-0.477403 v 13.28429 13.284289 l -9.45378,-0.477403 -9.45378,-0.477391 v 6.623584 6.623597 l 12.28991,-0.760475 c 6.75946,-0.418248 13.56618,-1.134113 15.12605,-1.590806 2.83519,-0.830068 2.83614,-0.825051 2.83614,15.07297 v 15.903315 h -30.22825 -30.22825 z"
       style="fill:#da0000;fill-opacity:1;stroke-width:1.26050425" />
    <path
       inkscape:connector-curvature="0"
       id="path4532"
       d="M 592.62342,123.46128 C 574.27679,120.50682 558.7485,112.86872 544.01968,99.553937 538.24347,94.332273 531.02335,88.598353 527.97497,86.811878 l -5.54251,-3.24813 27.52978,-27.551118 27.52976,-27.551105 2.25673,6.770219 c 2.65594,7.967798 9.15156,16.038718 15.22945,18.922865 5.94571,2.821425 16.15178,2.631492 22.11674,-0.411605 13.64062,-6.958928 17.74458,-22.983756 8.9835,-35.078067 C 618.00421,7.5188002 602.63677,5.1364296 591.13021,13.247013 l -5.80458,4.091433 -21.56119,-9.0918357 c -11.85865,-5.0005097 -22.47632,-9.5630017 -23.59483,-10.1388706 -1.78281,-0.9178954 -1.84136,-1.7914147 -0.47468,-7.0822614 0.85742,-3.3193743 4.32508,-29.1493653 7.7059,-57.3999793 l 6.14696,-51.364749 63.97059,-8e-4 63.97059,-7.9e-4 v 32.142857 c 0,17.678572 -0.21434,32.142857 -0.47632,32.142857 -0.26197,0 -2.51265,-0.85084 -5.00153,-1.890756 -3.57794,-1.494962 -10.60254,-1.890756 -33.55729,-1.890756 h -29.03209 v 6.168533 6.168532 l 5.35715,-1.221982 c 6.04278,-1.378378 18.11158,-0.427248 26.46013,2.085299 19.27993,5.802403 38.3291,22.328228 47.4201,41.1385885 6.52017,13.4910165 8.95592,23.9832395 8.97929,38.6792815 0.0406,25.509088 -10.16045,46.589987 -31.4146,64.919886 -8.24103,7.10718 -28.78213,17.45316 -40.41551,20.35616 -8.35019,2.08371 -30.34334,3.50534 -37.18488,2.40362 z M 153.33771,60.733597 V 36.191454 l 52.62605,-0.390517 c 55.65003,-0.412954 58.29832,-0.696844 58.29832,-6.249391 0,-1.648147 -4.85131,-7.440932 -13.08761,-15.627479 -22.63735,-22.500616 -31.40611,-38.451075 -31.56786,-57.422247 -0.0852,-9.994306 0.25307,-11.520851 4.32956,-19.537815 5.13828,-10.105136 12.32523,-15.812012 22.72038,-18.041374 4.11654,-0.882838 28.94337,-1.369353 69.87798,-1.369353 h 63.4929 l 5.86486,18.592437 c 3.22567,10.22584 8.18921,25.966386 11.03008,34.978991 2.84089,9.012605 5.4986,16.788427 5.90603,17.279604 0.60026,0.723648 6.72291,-20.491598 19.26508,-66.754394 l 1.11063,-4.096638 h 24.89318 24.89319 l 11.18059,34.978991 c 6.1493,19.238446 11.47364,35.517451 11.83182,36.175569 0.35819,0.658118 4.09748,-14.940621 8.30955,-34.663865 l 7.6583,-35.860443 15.43139,-0.353923 c 14.77587,-0.338888 15.43138,-0.245389 15.43138,2.201068 0,1.405244 -1.7258,16.879636 -3.8351,34.387535 -3.3885,28.125665 -4.84674,36.0627507 -8.07444,43.9484322 -0.64365,1.57249663 0.75108,2.6742365 6.16919,4.8732895 3.85047,1.5627907 6.98578,2.9173651 6.96736,3.0101647 -0.0184,0.092798 -3.65825,14.5689166 -8.08849,32.1691346 l -8.05499,32.000408 -7.31323,7.390348 -7.31323,7.390349 H 491.73504 470.1795 L 459.59887,49.76774 c -5.81933,-19.487925 -10.84274,-34.661244 -11.16311,-33.718488 -0.32038,0.942757 -4.3468,16.745622 -8.9476,35.117471 l -8.36508,33.403361 -27.10634,0.339063 -27.10632,0.339063 -17.47255,-57.692004 c -9.6099,-31.7306016 -18.05963,-58.462744 -18.77719,-59.40476 -1.03716,-1.361615 -5.70746,-1.609022 -22.78019,-1.206772 -22.50317,0.530194 -27.14782,1.572943 -27.14782,6.094812 0,1.452668 5.60338,8.001381 13.7135,16.027079 20.78879,20.5723679 29.75251,36.191414 31.28916,54.520494 1.48548,17.718756 -6.83852,31.448307 -23.01835,37.966298 l -7.48851,3.016727 -75.94538,0.352828 -75.94538,0.352828 z m 543.83278,16.588588 c 13.34223,-24.50579 14.28632,-53.208315 2.58816,-78.6865386 -2.28378,-4.9740239 -5.93792,-11.6389404 -8.1203,-14.8109244 l -3.96797,-5.767243 h 32.83367 32.83366 v 15.8911628 c 0,14.6449424 -0.17299,15.8189382 -2.20588,14.9702281 -1.21324,-0.506521 -8.01996,-1.208787 -15.12605,-1.5605962 L 723.08561,6.7186195 v 5.9752715 5.975269 l 9.45378,-0.477391 9.45378,-0.477403 v 13.28429 13.284289 l -9.45378,-0.477403 -9.45378,-0.477391 v 6.623584 6.623597 l 12.28991,-0.760475 c 6.75946,-0.418248 13.56618,-1.134113 15.12605,-1.590806 2.83519,-0.830068 2.83614,-0.825051 2.83614,15.07297 v 15.903315 h -30.22825 -30.22825 z"
       style="fill:#da0000;fill-opacity:1;stroke-width:1.26050425" />
    <path
       inkscape:connector-curvature="0"
       id="path4530"
       d="M 590.69847,123.02673 C 573.81402,120.33439 558.4611,112.60892 543.98064,99.518643 538.22591,94.316391 531.02335,88.598353 527.97497,86.811878 l -5.54251,-3.24813 27.52978,-27.551118 27.52976,-27.551105 2.25673,6.770219 c 2.67263,8.017853 9.81592,16.836088 15.59383,19.250256 6.00765,2.510156 16.05241,2.168899 21.75236,-0.738996 13.49843,-6.886386 17.74527,-22.582575 9.33891,-34.51626 -8.18828,-11.6240434 -23.56289,-14.2553762 -35.23239,-6.02995 l -5.80861,4.094282 -17.81328,-7.5371977 C 557.78226,5.6084178 547.1516,1.0893577 543.95589,-0.28847545 l -5.8104,-2.50515125 1.8235,-7.3685643 c 1.00292,-4.05271 4.48055,-29.774027 7.72805,-57.158481 l 5.90455,-49.789918 63.94369,-0.32668 63.94369,-0.32667 v 32.090086 32.09009 l -4.37128,-1.826438 c -3.39694,-1.419331 -10.9829,-1.826436 -34.03361,-1.826436 h -29.66234 v 6.130443 6.130443 l 6.42121,-1.167092 c 7.65177,-1.390752 20.59152,0.334627 30.60376,4.080685 17.09962,6.397788 33.50953,21.709337 42.25173,39.4236978 6.42904,13.0271802 8.92134,23.6566462 8.92134,38.0488812 0,24.856878 -8.54921,43.70787 -28.0679,61.88971 -16.79902,15.64844 -39.9366,25.18656 -63.75053,26.28019 -6.67475,0.30654 -15.27105,0.0575 -19.10288,-0.55359 z M 153.33771,60.722164 V 36.168576 l 52.62605,-0.379072 c 55.71882,-0.401357 58.29832,-0.679058 58.29832,-6.276113 0,-1.688105 -4.94147,-7.652635 -13.55042,-16.355836 -22.47577,-22.7218212 -30.90987,-37.746038 -31.02572,-55.268143 -0.11671,-17.652794 6.01339,-29.455229 18.64414,-35.896017 l 7.47135,-3.809865 67.21352,-0.376553 c 36.96743,-0.207104 67.21352,-0.152263 67.21352,0.121869 0,0.682946 21.25124,67.853355 22.21375,70.212667 0.73118,1.792272 3.30051,-6.648154 15.6361,-51.365546 l 5.3027,-19.222689 h 24.8098 24.8098 l 11.12151,34.978991 c 6.11684,19.238446 11.48951,35.388203 11.93926,35.888351 0.44975,0.500148 4.23395,-15.098592 8.40932,-34.663866 l 7.59158,-35.573224 15.38562,-0.353923 c 13.89905,-0.319727 15.3856,-0.142577 15.3856,1.833474 0,1.203068 -1.7184,16.393845 -3.81867,33.757284 -3.2699,27.033092 -5.43652,38.9616289 -8.27796,45.5752827 -0.33091,0.77019324 2.39727,2.6794752 6.06262,4.2428483 3.66534,1.5633731 6.77173,2.9314424 6.90309,3.0401559 0.13135,0.1087184 -3.36666,14.5849071 -7.77336,32.1693191 l -8.01219,31.971668 -7.31323,7.390348 -7.31323,7.390349 H 491.76329 470.236 L 459.65962,49.670265 c -5.817,-19.541534 -10.85312,-34.714853 -11.19138,-33.718488 -0.33824,0.996379 -4.37928,16.843097 -8.98008,35.214946 l -8.36508,33.403361 -27.08307,0.339 -27.08307,0.339 -16.21615,-53.280176 C 351.82191,2.6638094 343.70746,-24.060654 342.7087,-27.419793 l -1.81593,-6.107525 -22.24392,0.457055 c -33.6434,0.691287 -34.56633,2.131833 -14.22296,22.199753 22.45141,22.147418 30.82514,37.731901 30.9629,57.625468 0.0653,9.43592 -0.41613,12.35129 -2.86179,17.328567 -3.66332,7.455416 -11.10477,13.932832 -20.26574,17.640341 -6.99354,2.830336 -7.45666,2.848184 -82.97817,3.199046 l -75.94538,0.352828 z m 545.36414,13.44876 c 7.35936,-14.585394 9.70012,-26.003798 8.85028,-43.172268 -0.36033,-7.279412 -1.60717,-16.355042 -2.77077,-20.168068 -2.54063,-8.3255517 -9.71711,-23.012978 -14.01171,-28.67647 l -3.10645,-4.096639 h 32.83725 32.83726 v 15.8911628 c 0,14.6449424 -0.17299,15.8189382 -2.20588,14.9702281 -1.21324,-0.506521 -8.01996,-1.208787 -15.12605,-1.5605962 L 723.08561,6.7186195 v 5.9752715 5.975269 l 9.45378,-0.477391 9.45378,-0.477403 v 13.709785 c 0,12.280047 -0.21918,13.625673 -2.10166,12.90329 -1.15591,-0.443571 -5.41011,-1.15229 -9.45378,-1.574937 l -7.35212,-0.768441 v 7.280861 7.280862 l 12.28991,-0.70921 c 6.75946,-0.390076 13.56618,-1.099299 15.12605,-1.576046 l 2.83614,-0.866824 v 15.903315 15.903315 h -30.10049 -30.10049 z"
       style="fill:#da0000;fill-opacity:1;stroke-width:1.26050425" />
    <path
       inkscape:connector-curvature="0"
       id="path4528"
       d="m 591.0295,122.91089 c -17.18536,-2.6352 -32.72821,-10.41778 -46.91276,-23.49005 -4.6779,-4.311088 -11.3867,-9.735983 -14.90845,-12.055323 l -6.40317,-4.216992 27.5243,-27.502979 27.5243,-27.502979 0.92104,4.264185 c 2.05976,9.536244 9.87552,19.62842 17.39711,22.464177 5.60497,2.113147 15.57029,1.604231 20.76648,-1.060526 12.20999,-6.261655 17.12667,-19.244962 11.76113,-31.057172 C 622.24776,8.5497943 604.26094,3.9916119 591.14534,13.236336 l -5.70055,4.018122 -22.88127,-9.6654893 c -12.58471,-5.3160164 -23.21839,-9.8600383 -23.63043,-10.0978248 -0.41203,-0.2377878 0.0693,-3.7149908 1.06977,-7.7271199 1.00041,-4.01213 4.48508,-29.700242 7.74372,-57.084696 l 5.92479,-49.789918 63.9088,-0.32668 63.9088,-0.32667 v 32.090086 32.09009 l -4.37128,-1.826438 c -3.39694,-1.419331 -10.9829,-1.826436 -34.03361,-1.826436 h -29.66234 v 6.139783 6.139783 l 5.9874,-1.119802 c 11.53378,-2.157122 29.48768,1.927249 42.85071,9.748197 14.57724,8.531591 28.8212,26.5583953 35.00137,44.2968293 4.5007,12.9180457 5.69489,33.5623057 2.6461,45.7435537 -6.49333,25.943559 -25.63693,48.412384 -51.5978,60.560284 -16.29704,7.6259 -40.28886,11.24431 -57.28002,8.6389 z M 153.33771,60.731013 V 36.168576 l 52.62605,-0.379072 c 39.98035,-0.287987 53.30755,-0.768353 55.46219,-1.999058 5.34449,-3.05274 3.56751,-6.522795 -10.47811,-20.461374 -22.53302,-22.3612869 -31.12197,-37.797116 -31.19896,-56.069912 -0.0515,-12.219246 3.3273,-22.020232 9.93771,-28.826758 10.27599,-10.58084 12.67489,-10.879124 87.49376,-10.879124 58.79787,0 62.9201,0.143146 63.5235,2.205882 4.34463,14.852379 21.43902,67.986814 22.10389,68.705436 0.48512,0.524336 4.18617,-11.103815 8.22457,-25.840336 4.03842,-14.736519 8.46757,-30.906066 9.84258,-35.932327 l 2.5,-9.138655 h 24.7761 24.7761 l 11.27848,35.389589 c 6.20315,19.464274 11.62104,35.601308 12.03973,35.860075 0.41869,0.258767 4.16276,-15.524741 8.32016,-35.074463 l 7.5589,-35.544949 15.35457,-0.353923 c 13.08319,-0.301567 15.35458,-0.0692 15.35458,1.570816 0,1.058605 -1.71903,16.249384 -3.82006,33.757283 -3.34099,27.840397 -4.99674,37.0139812 -8.17621,45.2995387 -0.57356,1.49466304 0.97196,2.7034563 6.25756,4.8942126 5.06777,2.1004765 6.85512,3.4569416 6.42897,4.8790954 -0.32464,1.0833844 -3.80653,15.0160023 -7.73754,30.9613803 l -7.14727,28.991596 -8.3101,8.508404 -8.31009,8.508403 H 491.13699 470.2552 L 461.56991,55.893614 C 456.793,39.774916 452.0813,23.852454 451.09946,20.510353 c -0.98183,-3.342088 -2.09771,-5.763983 -2.47972,-5.381975 -0.38201,0.382009 -4.4583,16.162664 -9.05845,35.068135 l -8.3639,34.373571 -27.11237,0.338975 -27.11237,0.338975 -15.58778,-51.389395 C 352.8116,5.5944729 344.72534,-21.075924 343.41542,-25.408907 l -2.38169,-7.878152 -20.42365,0.07114 c -34.48779,0.120139 -36.73337,2.667861 -18.12434,20.562928 13.75633,13.2285491 20.94286,22.1660218 26.20421,32.588728 13.91429,27.564063 7.3761,52.154168 -16.42869,61.788126 -6.9926,2.829958 -7.46682,2.848285 -82.97817,3.207907 l -75.94538,0.36168 z M 698.06802,75.83745 c 14.82511,-28.292143 12.84945,-63.43582 -5.07515,-90.278107 l -5.00954,-7.501864 h 32.67718 32.6772 V -6.1622032 9.6181094 L 749.87132,8.6487187 C 747.96481,8.1155544 741.01628,7.6793279 734.43015,7.6793279 h -11.97479 l -0.3943,5.4942101 -0.3943,5.494197 10.16321,-0.461533 10.1632,-0.461534 V 31.15163 44.55858 l -5.59509,-1.193307 c -3.07729,-0.656332 -7.4733,-1.012979 -9.7689,-0.79258 -4.11482,0.395093 -4.17382,0.489845 -4.17382,6.703273 v 6.302521 h 10.71428 c 5.89286,0 12.84139,-0.451121 15.44118,-1.002491 l 4.72689,-1.002504 V 69.38692 85.200336 h -30.08792 -30.08793 z"
       style="fill:#da0000;fill-opacity:1;stroke-width:1.26050425" />
    <path
       inkscape:connector-curvature="0"
       id="path4526"
       d="m 591.0295,122.91089 c -17.18536,-2.6352 -32.72821,-10.41778 -46.91276,-23.49005 -4.6779,-4.311088 -11.43434,-9.767344 -15.0143,-12.125029 l -6.50902,-4.28671 27.40617,-26.767475 c 22.66098,-22.132865 27.55742,-26.362689 28.27969,-24.429592 0.48043,1.28584 1.61952,4.319017 2.5313,6.740395 2.02354,5.373794 9.06102,13.364785 14.03552,15.937197 4.15232,2.147256 15.0614,2.515488 19.9072,0.671975 5.02451,-1.911504 11.14414,-7.62329 13.84977,-12.926748 C 636.28462,27.177765 623.99086,8.30958 606.4987,8.30958 c -6.47186,0 -13.75438,2.636408 -17.81186,6.448197 l -2.71047,2.546358 -19.36556,-8.1409037 C 555.95977,4.6857376 545.16596,0.15834808 542.62457,-0.89762923 l -4.62071,-1.91995837 1.74045,-6.0960794 c 0.95726,-3.352844 4.32792,-27.934316 7.49037,-54.625492 3.16247,-26.691177 6.02926,-49.805671 6.37067,-51.365551 l 0.62072,-2.83613 h 63.63145 63.63145 v 32.078537 32.078539 l -4.37128,-1.826438 c -3.40661,-1.423375 -11.07155,-1.826436 -34.73293,-1.826436 h -30.36165 l 0.38419,5.987395 c 0.28031,4.368572 0.86589,5.883629 2.16581,5.603602 0.97991,-0.211085 6.6593,-0.376038 12.62088,-0.36656 30.94965,0.0492 58.42114,21.360516 69.83251,54.1733566 4.83754,13.9101054 6.04117,32.9241304 2.88292,45.5423324 -8.03434,32.099798 -35.01843,57.979512 -69.70311,66.850362 -11.45824,2.93052 -28.67977,3.96664 -39.17681,2.35704 z M 153.33771,60.667067 V 36.040672 L 204.073,35.96958 c 54.54107,-0.07651 59.19919,-0.54237 59.97236,-5.998223 0.32318,-2.280479 -2.85177,-6.274172 -14.53028,-18.277311 -22.15803,-22.773998 -29.85452,-37.016684 -29.75617,-55.065138 0.0945,-17.336574 8.26043,-31.019681 21.54418,-36.100016 5.39841,-2.064608 12.00522,-2.310345 72.19701,-2.685339 l 66.25483,-0.412765 11.06802,35.040237 c 6.08742,19.27213 11.48518,35.481655 11.99502,36.021169 0.50984,0.539513 1.82474,-2.296621 2.92199,-6.302521 1.09726,-4.0059 5.53621,-20.187866 9.86434,-35.959925 l 7.86933,-28.67647 24.70095,0.01197 24.70094,0.01197 11.3083,35.380162 c 6.21956,19.459091 11.65597,35.595039 12.08091,35.857667 0.42495,0.262627 3.74747,-13.536711 7.38341,-30.665196 3.63594,-17.128586 7.15521,-33.269902 7.82062,-35.869692 l 1.20982,-4.72689 h 15.20123 15.20122 l -0.88243,7.878151 c -4.41368,39.404536 -8.19332,65.3653825 -10.03508,68.9269598 -1.16461,2.2520837 -1.86129,4.75253449 -1.54821,5.55655718 0.3131,0.80402395 3.47263,2.57889072 7.0212,3.94415042 4.58524,1.7641059 6.28485,3.0405328 5.87447,4.4117647 -0.31761,1.0612147 -3.79374,14.9756939 -7.72475,30.9210719 l -7.14727,28.991596 -8.3101,8.508404 -8.31009,8.508403 -20.83213,-8.57e-4 -20.83212,-8.57e-4 -9.96163,-33.71763 C 454.914,32.93629 450.00427,16.936824 449.48238,15.926618 c -1.08263,-2.095614 -0.76884,-3.160803 -10.01022,33.979601 -3.53632,14.212184 -6.99015,27.967437 -7.67518,30.567226 l -1.24552,4.726891 -26.73712,-0.0025 -26.73713,-0.0025 -14.42987,-47.581802 c -7.93642,-26.169416 -16.06221,-52.881446 -18.05731,-59.359499 l -3.62744,-11.778275 -23.18061,0.433737 c -19.56209,0.366032 -23.50806,0.761424 -25.27838,2.532937 -3.44793,3.450268 -1.19445,7.816599 8.4631,16.397992 23.85059,21.1928952 37.1284,46.513906 34.55671,65.900272 -1.94276,14.645268 -9.24425,24.080218 -23.08777,29.833941 l -7.20717,2.995487 -75.94538,0.361689 -75.94538,0.361677 z M 698.06802,75.83745 c 15.00733,-28.639878 12.61931,-65.9164666 -5.87157,-91.654427 l -4.40076,-6.125544 h 32.771 32.77102 v 15.8911628 c 0,14.6622491 -0.17058,15.8164298 -2.20588,14.9247869 -1.21324,-0.5315042 -8.33727,-1.2233205 -15.83117,-1.5373676 l -13.62528,-0.5709945 0.38999,6.1293954 0.38999,6.129404 5.04201,-0.02168 c 2.77311,-0.01135 7.16912,-0.401685 9.76891,-0.86613 l 4.72689,-0.844462 V 30.92508 44.558567 l -5.59509,-1.193306 c -3.07729,-0.656332 -7.4733,-1.012979 -9.7689,-0.79258 -4.11482,0.395105 -4.17382,0.489857 -4.17382,6.703285 v 6.302521 h 11.34453 c 6.2395,0 13.18803,-0.411239 15.44118,-0.913865 l 4.09664,-0.913866 v 15.72479 15.72479 h -30.08792 -30.08793 z"
       style="fill:#da0000;fill-opacity:1;stroke-width:1.26050425" />
    <path
       inkscape:connector-curvature="0"
       id="path4524"
       d="m 592.58533,123.02337 c -18.22176,-2.529 -34.02634,-10.48935 -50.5137,-25.442399 -5.61862,-5.095752 -12.14173,-10.301446 -14.49579,-11.568202 l -4.28015,-2.303206 27.06425,-26.900092 27.06425,-26.900093 2.09038,5.506904 c 4.70198,12.386899 10.96186,18.602495 21.01961,20.870886 14.48905,3.267807 30.53462,-9.027428 30.53462,-23.397756 0,-21.311622 -26.47336,-32.58436014 -42.39195,-18.051114 -2.67993,2.44669 -2.73912,2.429975 -25.84034,-7.299602 -12.73485,-5.3635538 -23.36888,-9.9150782 -23.63119,-10.1144988 -0.26231,-0.1994218 0.12328,-2.7950281 0.85688,-5.768013 0.73359,-2.9729852 3.95295,-27.5272762 7.15416,-54.5650912 3.2012,-27.037815 6.08797,-50.435923 6.41504,-51.995803 l 0.59467,-2.83613 h 63.63145 63.63145 v 32.078537 32.078539 l -4.37128,-1.826438 c -3.40568,-1.422984 -11.06279,-1.826436 -34.66386,-1.826436 h -30.29259 l -6.3e-4,5.987395 -6.4e-4,5.987394 11.26189,-0.437435 c 21.57152,-0.837882 37.44568,5.478478 52.98466,21.082692 38.45107,38.612496 31.95605,100.179983 -13.7757,130.582402 -20.7849,13.81777 -47.14214,20.23632 -70.04549,17.05756 z M 153.33771,60.683819 V 36.167303 l 53.37934,-0.378442 c 57.1809,-0.40539 57.54503,-0.448021 57.54503,-6.736966 0,-1.977139 -3.25623,-6.035294 -10.24317,-12.765819 -20.48683,-19.734996 -30.94787,-35.751657 -33.83366,-51.802004 -2.60096,-14.466149 2.02249,-29.119493 11.94313,-37.851988 9.58808,-8.439769 8.05261,-8.274412 81.3559,-8.761268 l 66.23901,-0.439937 11.20444,35.670444 c 6.16244,19.618743 11.38114,35.906786 11.59713,36.195652 0.87112,1.1651008 1.8218,-1.896281 11.22171,-36.136036 l 9.77544,-35.607661 24.67676,0.02859 24.67675,0.02859 11.27382,35.342186 c 9.67058,30.316279 13.30602,40.0459522 13.30602,35.611532 0,-1.171728 13.7234,-65.60737 14.65398,-68.805012 0.56508,-1.941734 2.44309,-2.205882 15.68306,-2.205882 9.14862,0 15.04111,0.491926 15.04111,1.255689 0,7.695187 -8.21947,66.850043 -10.1275,72.8867265 -1.38479,4.3812693 -2.27769,8.35185752 -1.98421,8.82352937 0.29347,0.47167059 3.33304,1.94046933 6.75459,3.26399623 l 6.22098,2.4064109 -7.8911,31.4885 -7.89111,31.488505 -7.94558,8.016857 -7.94559,8.016844 -20.83474,-0.005 -20.83473,-0.005 -7.50323,-25.520559 C 449.52831,14.354567 449.30746,13.70663 448.13692,16.502076 c -0.5806,1.386554 -4.21412,15.283613 -8.0745,30.882353 -3.86038,15.598739 -7.57959,30.488445 -8.26491,33.088235 l -1.24605,4.726891 -26.73712,-0.01008 -26.73713,-0.01008 -14.41255,-47.573471 c -7.92689,-26.165584 -16.04993,-52.864991 -18.0512,-59.33219 l -3.63865,-11.758541 -23.03982,0.414003 c -33.08946,0.594589 -34.08733,2.13429 -14.13992,21.81758 19.6743,19.4137826 28.33532,33.460967 31.13931,50.504459 3.65033,22.187798 -6.99725,38.19629 -29.36564,44.150849 -5.3322,1.419453 -21.00475,1.771285 -79.43691,1.783298 l -72.79412,0.01496 z m 542.81828,19.203253 c 1.84478,-2.922303 5.05465,-9.870832 7.13306,-15.441177 3.16175,-8.473765 3.87183,-12.495454 4.34766,-24.62371 0.81313,-20.726294 -3.39018,-37.0803731 -13.58413,-52.852389 -2.75032,-4.255281 -5.00058,-8.001349 -5.00058,-8.324595 0,-0.323248 14.46428,-0.587722 32.14285,-0.587722 h 32.14286 v 15.8911628 c 0,14.6622491 -0.17058,15.8164298 -2.20588,14.9247869 -1.21324,-0.5315042 -8.30357,-1.2221684 -15.75631,-1.534805 L 721.8251,6.7701918 v 5.8512702 c 0,7.192664 1.24212,7.828891 12.11266,6.204328 l 8.05541,-1.20387 v 13.519538 13.519538 l -4.45246,-1.229395 c -2.44886,-0.67616 -6.84487,-1.055861 -9.76891,-0.843769 l -5.31644,0.385613 -0.38673,6.782509 -0.38671,6.782508 13.62201,-0.632332 c 7.49211,-0.347785 14.61466,-1.049886 15.8279,-1.560227 2.03325,-0.855277 2.20588,0.315681 2.20588,14.963269 V 85.200336 H 723.0698 692.80188 Z"
       style="fill:#da0000;fill-opacity:1;stroke-width:1.26050425" />
    <path
       inkscape:connector-curvature="0"
       id="path4522"
       d="m 598.29569,123.45378 c -22.31063,-2.24032 -38.43161,-9.74724 -56.7601,-26.430961 -4.52687,-4.120651 -10.39698,-8.830928 -13.04468,-10.467302 l -4.814,-2.975206 26.90749,-26.929336 26.90748,-26.929324 1.75301,5.365387 c 4.57239,13.994609 14.23483,21.756668 26.89796,21.607727 14.77698,-0.173799 25.6185,-11.513269 24.6465,-25.778546 -0.53815,-7.897879 -3.48691,-12.9809 -10.73972,-18.512887 -4.04713,-3.0868865 -5.59971,-3.4634999 -14.2783,-3.4634999 -9.0912,0 -10.07427,0.2707059 -14.81333,4.0791299 l -5.07594,4.079118 -22.4603,-9.4899265 c -12.35315,-5.2194617 -22.9312,-9.9608571 -23.50679,-10.5364323 -0.57557,-0.5755765 -0.46663,-3.2457555 0.2421,-5.9337328 0.70872,-2.6879774 3.8626,-26.4418534 7.0086,-52.7863914 3.14602,-26.344538 6.03652,-49.742647 6.42332,-51.995797 l 0.7033,-4.09664 h 63.59833 63.59835 v 32.175227 32.175227 l -3.71892,-1.923126 c -3.03723,-1.570618 -9.39112,-1.923126 -34.66386,-1.923126 h -30.94495 v 6.076555 6.076557 l 10.86817,-0.570434 c 12.72481,-0.667882 22.00278,1.079326 32.61922,6.142788 27.30434,13.022672 45.95692,43.6796377 45.96789,75.551844 0.009,24.301576 -11.87963,48.226021 -32.13288,64.667028 -18.37776,14.91855 -49.64551,24.90925 -71.18795,22.74608 z M 153.33771,60.672034 V 36.143731 l 53.44046,-0.366655 c 49.74243,-0.341282 53.61695,-0.526462 55.99082,-2.675937 3.78215,-3.424639 1.57258,-8.121946 -7.55478,-16.060677 -18.24416,-15.8682917 -32.52993,-37.567103 -35.04526,-53.230647 -2.07386,-12.91441 2.60479,-28.565303 10.88736,-36.420049 1.97115,-1.869343 6.42006,-4.705477 9.88644,-6.302521 6.28767,-2.89687 6.45853,-2.904639 72.47899,-3.295702 l 66.17647,-0.391988 11.19281,35.686106 c 6.15606,19.627357 11.56256,36.101008 12.01445,36.608112 0.4519,0.5071049 5.3298,-15.528612 10.83979,-35.634926 l 10.01818,-36.556935 24.56054,0.340809 24.56056,0.340809 11.39003,35.504556 c 6.26452,19.527507 11.7077,35.822066 12.09596,36.210132 0.38826,0.3880654 3.97152,-14.738145 7.9628,-33.613801 3.99128,-18.875656 7.54062,-35.312022 7.88741,-36.525257 0.55523,-1.942371 2.42734,-2.205882 15.67166,-2.205882 8.2726,0 15.04111,0.370503 15.04111,0.82334 0,7.562357 -8.27192,67.455138 -10.12626,73.3190755 -1.38547,4.3812693 -2.2449,8.40952811 -1.90983,8.95168609 0.33508,0.54215671 3.18026,1.96763071 6.32265,3.16772021 3.65764,1.3968642 5.70153,2.9381823 5.68035,4.2836079 -0.0181,1.1558975 -3.37533,15.3695443 -7.46027,31.5858803 l -7.42718,29.484265 -7.97332,8.044828 -7.97332,8.044827 L 491.19426,84.91429 470.42219,84.570084 460.1738,50.195857 c -5.63662,-18.905811 -10.60173,-34.727546 -11.03358,-35.159395 -1.03461,-1.034609 -0.85092,-1.682193 -8.99703,31.718496 -3.88892,15.945378 -7.641,31.129903 -8.33796,33.743395 l -1.26718,4.751798 -26.70038,-0.340033 -26.70039,-0.340034 -17.84144,-58.613445 -17.84144,-58.613446 -20.38219,-0.346653 c -36.58229,-0.62218 -37.82034,1.315357 -15.46121,24.1965539 22.08014,22.5956711 29.4764,36.4701411 29.61917,55.5618641 0.14758,19.734857 -7.46251,32.209404 -28.44547,37.674761 -6.01431,1.566529 -21.21133,0.770617 -81.23283,0.770617 H 153.33771 Z M 694.3041,84.254958 c 0.23109,-0.519958 2.52277,-5.208176 5.09263,-10.418281 2.56986,-5.210093 5.53942,-13.151269 6.59901,-17.647059 2.54594,-10.802181 2.50928,-31.009992 -0.0754,-41.496983 -2.37993,-9.6568882 -9.2587,-25.229668 -13.73894,-31.103549 -1.72118,-2.256594 -3.12942,-4.424356 -3.12942,-4.817251 0,-0.392896 14.46428,-0.714356 32.14285,-0.714356 h 32.14286 V -6.2742091 9.3941052 l -4.08832,-1.172516 C 747.00081,7.5767065 739.91048,7.0490758 733.49309,7.0490758 H 721.8251 v 6.3025212 6.302521 l 5.35715,-0.03013 c 2.94643,-0.01651 7.48424,-0.52403 10.08403,-1.127761 l 4.72689,-1.097685 v 13.64482 13.644806 l -4.08832,-1.172521 c -2.24857,-0.644874 -6.78639,-1.172508 -10.08403,-1.172508 h -5.99572 v 7.07221 7.072223 l 13.55042,-0.568437 c 7.45274,-0.31263 14.54307,-1.003299 15.75631,-1.534803 2.0353,-0.891643 2.20588,0.262538 2.20588,14.924786 v 15.891214 h -29.72689 c -16.3498,0 -29.53782,-0.42542 -29.30672,-0.945378 z"
       style="fill:#da0000;fill-opacity:1;stroke-width:1.26050425"
       sodipodi:nodetypes="scccccssccsccsccscccccccscccsscssccssssccscscscccssscssccscscccccsssccccccsssssccsscccssccccscccccccccscccccscscs" />
  </g>
</svg>
